<svg xmlns="http://www.w3.org/2000/svg" xmlns:xlink="http://www.w3.org/1999/xlink" preserveAspectRatio="xMidYMid" width="36" height="34" viewBox="0 0 36 34">
  <defs>
    <style>
      .cls-1 {
        fill: #bba48e;
        fill-rule: evenodd;
      }
    </style>
  </defs>
  <path d="M33.545,15.381 L33.545,30.762 C33.545,32.550 32.080,34.000 30.273,34.000 L5.727,34.000 C3.920,34.000 2.454,32.550 2.454,30.762 L2.454,15.381 L-0.012,15.381 C-0.016,15.016 0.143,14.650 0.469,14.372 L16.819,0.401 C17.464,-0.150 18.510,-0.150 19.155,0.401 L35.505,14.372 C35.831,14.650 35.990,15.016 35.986,15.381 L33.545,15.381 ZM19.227,22.857 C19.227,22.305 18.779,21.857 18.227,21.857 L16.954,21.857 C16.402,21.857 15.954,22.305 15.954,22.857 L15.954,31.381 C15.954,31.933 16.402,32.381 16.954,32.381 L18.227,32.381 C18.779,32.381 19.227,31.933 19.227,31.381 L19.227,22.857 Z" class="cls-1"/>
</svg>
