<svg xmlns="http://www.w3.org/2000/svg" xmlns:xlink="http://www.w3.org/1999/xlink" preserveAspectRatio="xMidYMid" width="34" height="34" viewBox="0 0 34 34">
  <defs>
    <style>
      .cls-1 {
        fill: #aaa6a3;
        fill-rule: evenodd;
      }
    </style>
  </defs>
  <path d="M30.000,34.000 L4.000,34.000 C1.791,34.000 -0.000,32.209 -0.000,30.000 L-0.000,4.000 C-0.000,1.791 1.791,-0.000 4.000,-0.000 L5.000,-0.000 L12.663,-0.000 L21.337,-0.000 L30.000,-0.000 C32.209,-0.000 34.000,1.791 34.000,4.000 L34.000,30.000 C34.000,32.209 32.209,34.000 30.000,34.000 ZM27.000,6.000 C25.895,6.000 25.000,6.895 25.000,8.000 L24.931,8.000 C24.972,8.328 25.000,8.660 25.000,9.000 C25.000,13.418 21.418,17.000 17.000,17.000 C12.582,17.000 9.000,13.418 9.000,9.000 C9.000,8.660 9.028,8.328 9.069,8.000 L9.000,8.000 C9.000,6.895 8.105,6.000 7.000,6.000 C5.895,6.000 5.000,6.895 5.000,8.000 C5.000,9.104 5.895,10.000 7.000,10.000 C7.017,10.000 7.033,9.995 7.050,9.995 C7.550,15.050 11.813,19.000 17.000,19.000 C22.187,19.000 26.450,15.050 26.950,9.995 C26.967,9.995 26.983,10.000 27.000,10.000 C28.105,10.000 29.000,9.104 29.000,8.000 C29.000,6.895 28.105,6.000 27.000,6.000 Z" class="cls-1"/>
</svg>
