<svg xmlns="http://www.w3.org/2000/svg" xmlns:xlink="http://www.w3.org/1999/xlink" preserveAspectRatio="xMidYMid" width="34" height="25" viewBox="0 0 34 25">
  <defs>
    <style>
      .cls-1 {
        fill: #aaa6a3;
        fill-rule: evenodd;
      }
    </style>
  </defs>
  <path d="M33.138,3.736 L12.405,3.736 C12.088,5.053 10.910,6.034 9.496,6.034 L3.000,6.034 C1.343,6.034 -0.000,4.691 -0.000,3.034 L-0.000,3.000 C-0.000,1.343 1.343,-0.000 3.000,-0.000 L9.496,-0.000 C10.804,-0.000 11.906,0.843 12.316,2.011 L33.138,2.011 C33.614,2.011 34.000,2.397 34.000,2.873 C34.000,3.350 33.614,3.736 33.138,3.736 ZM3.000,6.609 L9.496,6.609 C11.153,6.609 12.496,7.952 12.496,9.609 L12.496,9.848 C12.821,9.619 13.215,9.483 13.642,9.483 L31.110,9.483 C32.215,9.483 33.110,10.378 33.110,11.483 L33.110,12.368 C33.110,13.390 32.340,14.223 31.351,14.343 C31.357,14.401 31.385,14.452 31.385,14.511 C31.385,15.384 30.677,16.092 29.804,16.092 L26.862,16.092 C25.990,16.092 25.282,15.384 25.282,14.511 C25.282,14.460 25.306,14.417 25.311,14.368 L13.642,14.368 C13.215,14.368 12.821,14.231 12.496,14.003 L12.496,22.000 C12.496,23.657 11.153,25.000 9.496,25.000 L3.000,25.000 C1.343,25.000 -0.000,23.657 -0.000,22.000 L-0.000,9.609 C-0.000,7.952 1.343,6.609 3.000,6.609 Z" class="cls-1"/>
</svg>
