<svg xmlns="http://www.w3.org/2000/svg" xmlns:xlink="http://www.w3.org/1999/xlink" preserveAspectRatio="xMidYMid" width="34" height="29.562" viewBox="0 0 34 29.562">
  <defs>
    <style>
      .cls-1 {
        fill: #aaa6a3;
        fill-rule: evenodd;
      }
    </style>
  </defs>
  <path d="M33.250,12.000 L18.549,28.703 C17.565,29.821 15.969,29.821 14.985,28.703 L0.730,12.506 C-0.254,11.388 -0.254,9.575 0.730,8.457 L8.173,0.001 L26.252,0.001 L33.250,7.951 C34.234,9.069 34.234,10.882 33.250,12.000 ZM25.462,9.600 L24.987,9.064 L17.080,18.307 C16.843,18.584 16.459,18.584 16.223,18.307 L8.305,9.052 L7.821,9.600 C7.334,10.150 7.334,11.043 7.821,11.593 L15.759,20.563 C16.246,21.113 17.036,21.113 17.523,20.563 L25.462,11.593 C25.949,11.043 25.949,10.150 25.462,9.600 Z" class="cls-1"/>
</svg>
