<svg xmlns="http://www.w3.org/2000/svg" xmlns:xlink="http://www.w3.org/1999/xlink" preserveAspectRatio="xMidYMid" width="34.313" height="35.156" viewBox="0 0 34.313 35.156">
  <defs>
    <style>
      .cls-1 {
        fill: #aaa6a3;
        fill-rule: evenodd;
      }
    </style>
  </defs>
  <path d="M31.305,10.016 L31.305,10.302 L30.891,10.302 C31.057,10.943 31.162,11.608 31.162,12.301 L31.162,33.163 C31.162,34.268 30.267,35.163 29.162,35.163 L9.730,35.163 C8.625,35.163 7.730,34.268 7.730,33.163 L7.730,31.734 L5.175,31.734 C4.071,31.734 3.175,30.839 3.175,29.734 L3.175,12.301 C3.175,11.506 3.295,10.741 3.511,10.016 L0.014,10.016 L0.014,8.873 L3.955,8.873 C4.850,6.992 6.454,5.520 8.425,4.797 C8.776,4.492 9.228,4.301 9.730,4.301 L11.175,4.301 L23.162,4.301 L24.840,4.301 C25.428,4.301 25.951,4.559 26.317,4.962 C26.420,5.007 26.511,5.074 26.612,5.123 C26.602,5.087 26.590,5.053 26.590,5.015 C26.590,4.779 26.782,4.587 27.019,4.587 C27.255,4.587 27.447,4.779 27.447,5.015 C27.447,5.204 27.323,5.360 27.153,5.417 C28.449,6.170 29.514,7.261 30.217,8.587 L31.305,8.587 L31.305,8.873 L34.306,8.873 L34.306,10.016 L31.305,10.016 ZM28.448,11.587 C28.448,11.343 28.405,11.111 28.380,10.873 L28.448,10.873 L28.448,8.587 L27.746,8.587 C27.496,8.065 27.206,7.565 26.840,7.124 L26.840,8.587 L26.733,8.587 L26.733,10.873 L26.840,10.873 L26.840,29.734 C26.840,30.839 25.945,31.734 24.840,31.734 L8.444,31.734 L8.444,32.734 C8.444,33.287 8.892,33.735 9.444,33.735 L27.448,33.735 C28.000,33.735 28.448,33.287 28.448,32.734 L28.448,11.587 Z" class="cls-1"/>
</svg>
