<svg xmlns="http://www.w3.org/2000/svg" xmlns:xlink="http://www.w3.org/1999/xlink" preserveAspectRatio="xMidYMid" width="44" height="42" viewBox="0 0 44 42">
  <defs>
    <style>
      .cls-1 {
        fill: #bba48e;
        fill-rule: evenodd;
      }
    </style>
  </defs>
  <path d="M41.000,18.995 L41.000,38.005 C41.000,40.215 39.209,42.007 37.000,42.007 L7.000,42.007 C4.791,42.007 3.000,40.215 3.000,38.005 L3.000,18.995 L-0.015,18.995 C-0.019,18.545 0.176,18.093 0.573,17.750 L20.557,0.484 C21.345,-0.197 22.623,-0.197 23.412,0.484 L43.395,17.750 C43.793,18.093 43.987,18.545 43.984,18.995 L41.000,18.995 ZM23.500,27.995 C23.500,27.443 23.052,26.995 22.500,26.995 L20.500,26.995 C19.948,26.995 19.500,27.443 19.500,27.995 L19.500,38.995 C19.500,39.547 19.948,39.995 20.500,39.995 L22.500,39.995 C23.052,39.995 23.500,39.547 23.500,38.995 L23.500,27.995 Z" class="cls-1"/>
</svg>
