<svg xmlns="http://www.w3.org/2000/svg" xmlns:xlink="http://www.w3.org/1999/xlink" preserveAspectRatio="xMidYMid" width="32" height="27" viewBox="0 0 32 27">
  <defs>
    <style>
      .cls-1 {
        fill: #5c5c5c;
        fill-rule: evenodd;
      }
    </style>
  </defs>
  <path d="M31.000,15.000 L1.000,15.000 C0.448,15.000 -0.000,14.552 -0.000,14.000 C-0.000,13.448 0.448,13.000 1.000,13.000 L31.000,13.000 C31.552,13.000 32.000,13.448 32.000,14.000 C32.000,14.552 31.552,15.000 31.000,15.000 ZM31.000,2.000 L1.000,2.000 C0.448,2.000 -0.000,1.552 -0.000,1.000 C-0.000,0.447 0.448,-0.000 1.000,-0.000 L31.000,-0.000 C31.552,-0.000 32.000,0.447 32.000,1.000 C32.000,1.552 31.552,2.000 31.000,2.000 ZM1.000,25.000 L22.000,25.000 L22.000,27.000 L1.000,27.000 C0.448,27.000 -0.000,26.552 -0.000,26.000 C-0.000,25.448 0.448,25.000 1.000,25.000 ZM26.000,25.000 L31.000,25.000 C31.552,25.000 32.000,25.448 32.000,26.000 C32.000,26.552 31.552,27.000 31.000,27.000 L26.000,27.000 L26.000,25.000 Z" class="cls-1"/>
</svg>
